<svg width="20" height="20" viewBox="0 0 20 20" fill="none" xmlns="http://www.w3.org/2000/svg">
<path d="M15.6697 4.35339C16.124 4.81286 16.1076 5.544 15.6333 5.98383L11.5491 9.77172C12.0155 9.34336 12.7872 9.36406 13.2343 9.83116C13.6422 10.2572 13.5937 10.9072 13.1605 11.305L12.6051 11.8152C13.1462 11.3183 14.0983 11.4258 14.4775 12.1333C14.7407 12.6244 14.6084 13.2158 14.1901 13.5999L13.5841 14.1566C14.0325 13.7446 14.7633 13.7481 15.2163 14.164L15.2177 14.1654C15.7116 14.6189 15.7149 15.3513 15.2252 15.8011L12.9453 17.8951C11.3317 19.3771 8.70461 19.367 7.07746 17.8724L5.22777 16.1737C3.95726 15.0068 3.63747 13.2296 4.43438 11.7644C5.02252 10.7256 5.18341 9.6913 4.96579 8.52917C4.89075 8.15898 5.01739 7.78079 5.30477 7.51677C5.99482 6.88312 7.18444 7.20381 7.41 8.08449L7.76817 10.0951L8.18475 9.71246L13.9999 4.31798C14.4715 3.88062 15.2179 3.89637 15.6696 4.35323L15.6697 4.35339Z" fill="#272956"/>
<path d="M8.68166 4.09735C8.36294 4.09522 8.10633 3.83505 8.1086 3.51633L8.12242 1.57664C8.12468 1.25813 8.38465 1.00172 8.70317 1.00384C9.02189 1.00597 9.2785 1.26614 9.27623 1.58486L9.26242 3.52455C9.26015 3.84306 9.00018 4.09947 8.68166 4.09735Z" fill="#272956"/>
<path d="M10.2927 4.68929C10.0622 4.46627 10.0624 4.09663 10.2932 3.87389L11.5417 2.66867C11.7616 2.45641 12.1101 2.45662 12.3298 2.66915C12.5602 2.89217 12.56 3.2618 12.3293 3.48455L11.0808 4.68976C10.8609 4.90202 10.5123 4.90181 10.2927 4.68929Z" fill="#272956"/>
<path d="M5.04211 3.56637C4.81088 3.34417 4.80982 2.97457 5.03978 2.75105C5.25891 2.53805 5.60742 2.53706 5.82776 2.7488L7.04759 3.92102C7.27882 4.14322 7.27988 4.51282 7.04992 4.73633C6.83079 4.94933 6.48228 4.95033 6.26194 4.73859L5.04211 3.56637Z" fill="#272956"/>
</svg>
