<svg width="28" height="28" viewBox="0 0 28 28" fill="none" xmlns="http://www.w3.org/2000/svg">
<path d="M24.2969 13.3438C24.7656 12.875 24.9531 12.3125 24.9531 11.75C24.9531 11.1406 24.7656 10.5781 24.2969 10.1562L16.8438 2.65625C16.375 2.23438 15.8125 2 15.2031 2C14.5938 2 14.0312 2.23438 13.6562 2.65625L1.60938 14.6562C1.1875 15.125 1 15.6875 1 16.25C1 16.8125 1.1875 17.375 1.60938 17.8438L6.10938 22.3438C6.53125 22.7656 7.09375 22.9531 7.65625 23H23.8281C24.4844 23 25 22.5312 25 21.875C25 21.2188 24.4844 20.75 23.875 20.75H16.9375L24.2969 13.3438ZM7.70312 20.75L3.20312 16.25L8.78125 10.6719L16.2812 18.1719L13.7031 20.75H7.70312Z" fill="white"/>
</svg>
