<svg width="20" height="20" viewBox="0 0 20 20" fill="none" xmlns="http://www.w3.org/2000/svg">
<path d="M8.98475 6.09375L6.67311 2.25C6.61063 2.09375 6.4232 2 6.26701 2H2.51839C2.11229 2 1.86238 2.46875 2.08105 2.8125L5.57976 7.78125C6.48567 6.90625 7.67274 6.3125 8.98475 6.09375ZM10.0156 7C6.95425 7 4.51765 9.46875 4.51765 12.5C4.51765 15.5625 6.95425 18 10.0156 18C13.0457 18 15.5136 15.5625 15.5136 12.5C15.5136 9.46875 13.0457 7 10.0156 7ZM12.8896 11.9375L11.7025 13.0938L11.9836 14.7188C12.0461 15 11.7337 15.25 11.4526 15.0938L9.98438 14.3125L8.54741 15.0938C8.26627 15.2188 7.95388 15 8.01636 14.7188L8.2975 13.0938L7.11044 11.9375C6.89177 11.7188 7.01673 11.3438 7.29787 11.3125L8.95351 11.0625L9.672 9.59375C9.73447 9.46875 9.85943 9.40625 9.98438 9.40625C10.1406 9.40625 10.2655 9.46875 10.328 9.59375L11.0465 11.0625L12.7021 11.3125C12.9833 11.3438 13.1082 11.7188 12.8896 11.9375ZM17.4816 2H13.733C13.5768 2 13.3894 2.09375 13.2957 2.25L11.0152 6.0625C12.3273 6.28125 13.5143 6.875 14.4202 7.75L17.9189 2.78125C18.1376 2.46875 17.8877 2 17.4816 2Z" fill="#C9C9D5"/>
</svg>
