<svg width="20" height="20" viewBox="0 0 20 20" fill="none" xmlns="http://www.w3.org/2000/svg">
<path d="M15.6756 10.7619L7.70163 17.7493C7.48274 17.9373 7.23258 18 7.01368 18C6.79479 18 6.5759 17.9373 6.41955 17.812C6.0443 17.5613 5.88795 17.06 6.07557 16.6213L8.48339 10.9812H5.01238C4.5746 10.9812 4.19935 10.7305 4.07427 10.3545C3.91792 9.9472 4.01173 9.50853 4.32444 9.22652L12.3296 2.23908C12.6736 1.92574 13.1739 1.92574 13.5492 2.20774C13.9557 2.45841 14.0808 2.95975 13.8932 3.39843L11.4853 9.00719H14.9876C15.3941 9.00719 15.7694 9.28919 15.9257 9.6652C16.0821 10.0412 15.9883 10.4799 15.6756 10.7619Z" fill="#C9C9D5"/>
</svg>
