<svg width="28" height="28" viewBox="0 0 28 28" fill="none" xmlns="http://www.w3.org/2000/svg">
<path d="M10.5 22.5079C10.5 22.7657 10.5875 23.0235 10.7188 23.2813L11.4625 24.3555C11.6812 24.6992 12.2063 25 12.6438 25H15.3125C15.75 25 16.275 24.6992 16.4937 24.3555L17.2375 23.2813C17.3687 23.0235 17.4562 22.7657 17.4562 22.5079V20.8751H10.5V22.5079ZM13.9563 3.0004C9.49375 3.0004 6.3 6.52378 6.3 10.5198C6.3 12.3245 6.95625 14.0861 8.18125 15.4611C8.925 16.2775 10.0188 17.9962 10.4563 19.4142C10.4563 19.4142 10.4563 19.4142 10.4563 19.4571H17.5C17.5 19.4142 17.5 19.4142 17.5 19.4142C17.9375 17.9962 19.0312 16.2775 19.775 15.4611C21 14.0861 21.7 12.3245 21.7 10.5198C21.7 6.3519 18.2 2.95744 13.9563 3.0004ZM14 7.12533C12.0312 7.12533 10.5 8.62921 10.5 10.5198C10.5 10.8635 10.15 11.2073 9.8 11.2073C9.40625 11.2073 9.1 10.8635 9.1 10.5198C9.1 7.89875 11.2875 5.75035 14 5.75035C14.35 5.75035 14.7 6.05113 14.7 6.43784C14.7 6.78158 14.35 7.12533 14 7.12533ZM4.9 11.2073C4.9 10.6487 4.41875 10.1761 3.85 10.1761H1.05C0.4375 10.1761 0 10.6487 0 11.2073C0 11.8088 0.4375 12.2385 1.05 12.2385H3.85C4.41875 12.2385 4.9 11.8088 4.9 11.2073ZM26.95 10.1761H24.15C23.5375 10.1761 23.1 10.6487 23.1 11.2073C23.1 11.8088 23.5375 12.2385 24.15 12.2385H26.95C27.5187 12.2385 28 11.8088 28 11.2073C28 10.6487 27.5187 10.1761 26.95 10.1761ZM5.73125 5.36364L3.28125 3.98867C2.975 3.77383 2.5375 3.77383 2.23125 3.9457C1.88125 4.16054 1.70625 4.50428 1.70625 4.84803C1.70625 5.23474 1.925 5.57848 2.23125 5.75035L4.68125 7.12533C4.9875 7.34017 5.38125 7.34017 5.73125 7.1683C6.0375 6.95346 6.25625 6.60971 6.25625 6.26597C6.25625 5.87926 6.0375 5.53551 5.73125 5.36364ZM25.725 16.7072L23.275 15.3322C22.9688 15.1174 22.575 15.1174 22.225 15.2892C21.9188 15.5041 21.7 15.8478 21.7 16.1916C21.7 16.5783 21.9188 16.922 22.225 17.0939L24.675 18.4689C25.1562 18.7696 25.8125 18.5978 26.075 18.0822C26.3813 17.6095 26.2062 16.965 25.725 16.7072ZM4.68125 15.3322L2.23125 16.7072C1.925 16.8791 1.70625 17.2228 1.70625 17.6095C1.70625 17.9533 1.88125 18.297 2.23125 18.5118C2.5375 18.6837 2.975 18.6837 3.28125 18.4689L5.73125 17.0939C6.2125 16.8361 6.34375 16.1916 6.08125 15.7189C5.81875 15.2033 5.1625 15.0314 4.68125 15.3322ZM22.7938 7.25423C22.9688 7.25423 23.1437 7.21126 23.3188 7.12533L25.725 5.75035C26.2062 5.44958 26.3813 4.84803 26.075 4.37538C25.8125 3.85976 25.1562 3.68789 24.675 3.98867L22.2687 5.36364C21.8312 5.57848 21.6562 6.05113 21.7437 6.52378C21.875 6.95346 22.3125 7.25423 22.7938 7.25423Z" fill="white"/>
</svg>
