<svg width="20" height="20" viewBox="0 0 20 20" fill="none" xmlns="http://www.w3.org/2000/svg">
<path d="M1.25312 9.39844C1.08437 9.5625 1 9.78125 1 10V13.5C1 13.7461 1.08437 13.9648 1.25312 14.1289C1.42188 14.293 1.64687 14.375 1.9 14.375H2.8V9.125H1.9C1.64687 9.125 1.42188 9.23438 1.25312 9.39844ZM14.05 5.625H10.9V3.875C10.9 3.41016 10.4781 3 10 3C9.49375 3 9.1 3.41016 9.1 3.875V5.625H5.95C4.68437 5.625 3.7 6.60938 3.7 7.8125V15.25C3.7 16.2344 4.4875 17 5.5 17H14.5C15.4844 17 16.3 16.2344 16.3 15.25V7.8125C16.3 6.60938 15.2875 5.625 14.05 5.625ZM8.2 14.375H6.4V13.5H8.2V14.375ZM7.3 11.0938C6.65312 11.0938 6.175 10.6289 6.175 10C6.175 9.39844 6.65312 8.90625 7.3 8.90625C7.91875 8.90625 8.425 9.39844 8.425 10C8.425 10.6289 7.91875 11.0938 7.3 11.0938ZM10.9 14.375H9.1V13.5H10.9V14.375ZM13.6 14.375H11.8V13.5H13.6V14.375ZM12.7 11.0938C12.0531 11.0938 11.575 10.6289 11.575 10C11.575 9.39844 12.0531 8.90625 12.7 8.90625C13.3187 8.90625 13.825 9.39844 13.825 10C13.825 10.6289 13.3187 11.0938 12.7 11.0938ZM18.7188 9.39844C18.55 9.23438 18.325 9.125 18.1 9.125H17.2V14.375H18.1C18.325 14.375 18.55 14.293 18.7188 14.1289C18.8875 13.9648 19 13.7461 19 13.5V10C19 9.78125 18.8875 9.5625 18.7188 9.39844Z" fill="#C9C9D5"/>
</svg>
