<svg width="20" height="20" viewBox="0 0 20 20" fill="none" xmlns="http://www.w3.org/2000/svg">
<path d="M17.3812 2.02451C16.1613 2.39939 13.878 3.08668 11.5008 3.93017C11.4383 3.71148 11.3757 3.52404 11.3132 3.36784C11.2819 3.21164 11.188 3.11792 11.0316 3.05544C10.9065 2.99296 10.7501 2.99296 10.5937 3.05544C9.28006 3.74272 5.83943 5.64838 3.90016 7.52279C3.86889 7.55403 3.83761 7.58527 3.80633 7.61651C1.39789 9.99077 1.39789 13.8333 3.80633 16.2076C6.18349 18.6131 10.0307 18.5818 12.4079 16.2076C12.4392 16.1763 12.4705 16.1451 12.5017 16.1139C14.3784 14.177 16.2551 10.7405 16.9745 9.3972C17.0371 9.27224 17.0371 9.11604 16.9745 8.99108C16.912 8.83488 16.8182 8.74116 16.6618 8.70992C16.5054 8.64744 16.2864 8.58496 16.0675 8.52248C16.912 6.14822 17.6001 3.86768 17.9755 2.64932C18.038 2.49311 17.9755 2.27443 17.8503 2.14947C17.7252 2.02451 17.5376 1.96203 17.3812 2.02451ZM11.8762 11.3966L10.281 12.9274L10.6563 15.1142C10.6876 15.3016 10.625 15.4578 10.4686 15.5828C10.3122 15.6765 10.1246 15.7077 9.96818 15.614L8.02892 14.5831L6.05838 15.614C5.71431 15.8015 5.30769 15.489 5.37025 15.1142L5.74559 12.9274L4.15039 11.3966C4.02528 11.2716 3.96272 11.0842 4.02528 10.8967C4.08784 10.7405 4.24423 10.5843 4.4319 10.5843L6.59011 10.2407L7.59102 8.27256C7.65358 8.11635 7.84125 7.99139 7.99764 7.99139C8.18531 7.99139 8.37298 8.11635 8.43554 8.27256L9.40517 10.2407L11.5947 10.5843C11.7823 10.6156 11.9387 10.7405 12.0013 10.8967C12.0326 11.0842 12.0013 11.2716 11.8762 11.3966Z" fill="#C9C9D5"/>
</svg>
