<svg width="223" height="38" viewBox="0 0 223 38" fill="none" xmlns="http://www.w3.org/2000/svg">
<path d="M22 6.1748C16.383 6.1748 12.8723 9.0248 11.4681 14.7248C13.5745 11.8748 16.0319 10.8061 18.8404 11.5186C20.4429 11.9251 21.5882 13.1048 22.8558 14.4105C24.921 16.5378 27.3113 18.9998 32.5319 18.9998C38.1489 18.9998 41.6596 16.1498 43.0638 10.4498C40.9574 13.2998 38.5 14.3686 35.6915 13.6561C34.089 13.2495 32.9437 12.0698 31.676 10.7641C29.6108 8.63681 27.2206 6.1748 22 6.1748ZM11.4681 18.9998C5.85105 18.9998 2.34041 21.8498 0.936157 27.5498C3.04254 24.6998 5.49999 23.6311 8.3085 24.3436C9.91094 24.7501 11.0563 25.9298 12.3239 27.2356C14.3891 29.3628 16.7793 31.8248 22 31.8248C27.617 31.8248 31.1276 28.9748 32.5319 23.2748C30.4255 26.1248 27.9681 27.1936 25.1596 26.4811C23.5571 26.0745 22.4118 24.8948 21.1441 23.589C19.0789 21.4618 16.6887 18.9998 11.4681 18.9998Z" fill="white"/>
<path d="M56.97 15.72V30H53.96V15.72H56.97ZM57.474 11.408C57.474 11.6787 57.418 11.9353 57.306 12.178C57.2033 12.4207 57.0587 12.6353 56.872 12.822C56.6853 12.9993 56.466 13.144 56.214 13.256C55.9713 13.3587 55.71 13.41 55.43 13.41C55.1593 13.41 54.9027 13.3587 54.66 13.256C54.4267 13.144 54.2213 12.9993 54.044 12.822C53.8667 12.6353 53.722 12.4207 53.61 12.178C53.5073 11.9353 53.456 11.6787 53.456 11.408C53.456 11.128 53.5073 10.8667 53.61 10.624C53.722 10.3813 53.8667 10.1713 54.044 9.994C54.2213 9.80733 54.4267 9.66267 54.66 9.56C54.9027 9.448 55.1593 9.392 55.43 9.392C55.71 9.392 55.9713 9.448 56.214 9.56C56.466 9.66267 56.6853 9.80733 56.872 9.994C57.0587 10.1713 57.2033 10.3813 57.306 10.624C57.418 10.8667 57.474 11.128 57.474 11.408ZM77.7812 9.84V30H74.5052V21.026H64.3832V30H61.0932V9.84H64.3832V18.66H74.5052V9.84H77.7812ZM90.9539 21.25C90.9539 20.746 90.8792 20.2793 90.7299 19.85C90.5899 19.4113 90.3799 19.0333 90.0999 18.716C89.8199 18.3893 89.4699 18.1373 89.0499 17.96C88.6392 17.7733 88.1632 17.68 87.6219 17.68C86.5299 17.68 85.6712 17.9927 85.0459 18.618C84.4206 19.2433 84.0239 20.1207 83.8559 21.25H90.9539ZM83.7719 23.098C83.8092 23.91 83.9352 24.6147 84.1499 25.212C84.3646 25.8 84.6492 26.29 85.0039 26.682C85.3679 27.074 85.7972 27.368 86.2919 27.564C86.7959 27.7507 87.3559 27.844 87.9719 27.844C88.5599 27.844 89.0686 27.7787 89.4979 27.648C89.9272 27.508 90.3006 27.3587 90.6179 27.2C90.9352 27.032 91.2059 26.8827 91.4299 26.752C91.6539 26.612 91.8592 26.542 92.0459 26.542C92.2886 26.542 92.4752 26.6353 92.6059 26.822L93.4599 27.928C93.1052 28.348 92.7039 28.7027 92.2559 28.992C91.8079 29.2813 91.3319 29.5193 90.8279 29.706C90.3239 29.8833 89.8059 30.0093 89.2739 30.084C88.7419 30.168 88.2239 30.21 87.7199 30.21C86.7306 30.21 85.8112 30.0467 84.9619 29.72C84.1219 29.384 83.3892 28.894 82.7639 28.25C82.1479 27.606 81.6626 26.808 81.3079 25.856C80.9626 24.904 80.7899 23.8073 80.7899 22.566C80.7899 21.5767 80.9439 20.6527 81.2519 19.794C81.5692 18.9353 82.0172 18.1887 82.5959 17.554C83.1839 16.9193 83.8932 16.42 84.7239 16.056C85.5639 15.6827 86.5112 15.496 87.5659 15.496C88.4432 15.496 89.2552 15.6407 90.0019 15.93C90.7486 16.21 91.3926 16.6253 91.9339 17.176C92.4752 17.7267 92.8952 18.4033 93.1939 19.206C93.5019 19.9993 93.6559 20.9047 93.6559 21.922C93.6559 22.3887 93.6046 22.7013 93.5019 22.86C93.3992 23.0187 93.2126 23.098 92.9419 23.098H83.7719ZM104.093 23.756C103.02 23.7933 102.114 23.882 101.377 24.022C100.64 24.1527 100.042 24.3253 99.5849 24.54C99.1276 24.7453 98.7962 24.9927 98.5909 25.282C98.3949 25.5713 98.2969 25.8887 98.2969 26.234C98.2969 26.57 98.3482 26.8593 98.4509 27.102C98.5629 27.3353 98.7122 27.5313 98.8989 27.69C99.0949 27.8393 99.3189 27.9513 99.5709 28.026C99.8322 28.0913 100.117 28.124 100.425 28.124C101.209 28.124 101.881 27.9793 102.441 27.69C103.01 27.3913 103.561 26.962 104.093 26.402V23.756ZM96.1129 17.708C97.7276 16.2053 99.6502 15.454 101.881 15.454C102.702 15.454 103.43 15.5893 104.065 15.86C104.709 16.1213 105.246 16.4947 105.675 16.98C106.114 17.4653 106.445 18.044 106.669 18.716C106.902 19.3787 107.019 20.116 107.019 20.928V30H105.675C105.386 30 105.166 29.958 105.017 29.874C104.868 29.7807 104.742 29.5987 104.639 29.328L104.345 28.166C103.981 28.4927 103.622 28.7867 103.267 29.048C102.912 29.3 102.544 29.5147 102.161 29.692C101.788 29.8693 101.382 30 100.943 30.084C100.514 30.1773 100.038 30.224 99.5149 30.224C98.9362 30.224 98.3949 30.1447 97.8909 29.986C97.3962 29.8273 96.9669 29.5893 96.6029 29.272C96.2389 28.9453 95.9496 28.544 95.7349 28.068C95.5296 27.592 95.4269 27.032 95.4269 26.388C95.4269 25.8373 95.5716 25.3007 95.8609 24.778C96.1596 24.2553 96.6449 23.7887 97.3169 23.378C97.9982 22.958 98.8896 22.6127 99.9909 22.342C101.102 22.0713 102.469 21.9173 104.093 21.88V20.928C104.093 19.9013 103.874 19.136 103.435 18.632C102.996 18.128 102.352 17.876 101.503 17.876C100.924 17.876 100.439 17.9507 100.047 18.1C99.6549 18.24 99.3142 18.394 99.0249 18.562C98.7356 18.73 98.4789 18.8887 98.2549 19.038C98.0309 19.178 97.7929 19.248 97.5409 19.248C97.3356 19.248 97.1582 19.1967 97.0089 19.094C96.8689 18.982 96.7522 18.8467 96.6589 18.688L96.1129 17.708ZM113.387 18.366C113.835 17.4607 114.376 16.7513 115.011 16.238C115.646 15.7153 116.406 15.454 117.293 15.454C117.601 15.454 117.89 15.4913 118.161 15.566C118.432 15.6313 118.674 15.734 118.889 15.874L118.679 18.142C118.642 18.3007 118.581 18.4127 118.497 18.478C118.422 18.534 118.32 18.562 118.189 18.562C118.049 18.562 117.848 18.5387 117.587 18.492C117.326 18.436 117.05 18.408 116.761 18.408C116.341 18.408 115.968 18.4687 115.641 18.59C115.324 18.7113 115.034 18.8887 114.773 19.122C114.521 19.3553 114.297 19.64 114.101 19.976C113.905 20.312 113.723 20.6947 113.555 21.124V30H110.545V15.72H112.295C112.612 15.72 112.832 15.7807 112.953 15.902C113.074 16.014 113.158 16.2147 113.205 16.504L113.387 18.366ZM125.459 30.224C124.274 30.224 123.359 29.8927 122.715 29.23C122.08 28.558 121.763 27.6153 121.763 26.402V18.086H120.195C120.027 18.086 119.882 18.0347 119.761 17.932C119.64 17.82 119.579 17.6567 119.579 17.442V16.224L121.889 15.888L122.547 11.758C122.594 11.5993 122.673 11.4733 122.785 11.38C122.897 11.2773 123.046 11.226 123.233 11.226H124.773V15.916H128.735V18.086H124.773V26.192C124.773 26.7053 124.899 27.0973 125.151 27.368C125.403 27.6387 125.739 27.774 126.159 27.774C126.392 27.774 126.593 27.746 126.761 27.69C126.929 27.6247 127.074 27.5593 127.195 27.494C127.316 27.4193 127.419 27.354 127.503 27.298C127.596 27.2327 127.685 27.2 127.769 27.2C127.937 27.2 128.072 27.2933 128.175 27.48L129.071 28.95C128.604 29.3607 128.054 29.678 127.419 29.902C126.784 30.1167 126.131 30.224 125.459 30.224ZM142.209 13.284C142.107 13.452 141.999 13.578 141.887 13.662C141.775 13.7367 141.635 13.774 141.467 13.774C141.29 13.774 141.089 13.6993 140.865 13.55C140.651 13.4007 140.38 13.2373 140.053 13.06C139.736 12.8733 139.358 12.7053 138.919 12.556C138.481 12.3973 137.958 12.318 137.351 12.318C136.791 12.318 136.297 12.388 135.867 12.528C135.447 12.668 135.093 12.864 134.803 13.116C134.514 13.368 134.295 13.6667 134.145 14.012C134.005 14.348 133.935 14.7167 133.935 15.118C133.935 15.6313 134.071 16.0607 134.341 16.406C134.612 16.742 134.967 17.0313 135.405 17.274C135.853 17.5167 136.362 17.7313 136.931 17.918C137.501 18.0953 138.079 18.2867 138.667 18.492C139.265 18.6973 139.848 18.9307 140.417 19.192C140.987 19.4533 141.491 19.7847 141.929 20.186C142.377 20.5873 142.737 21.0773 143.007 21.656C143.278 22.2347 143.413 22.9393 143.413 23.77C143.413 24.666 143.259 25.506 142.951 26.29C142.643 27.074 142.195 27.76 141.607 28.348C141.029 28.9267 140.31 29.384 139.451 29.72C138.602 30.056 137.631 30.224 136.539 30.224C135.895 30.224 135.265 30.1587 134.649 30.028C134.043 29.9067 133.459 29.734 132.899 29.51C132.349 29.2767 131.831 28.9967 131.345 28.67C130.86 28.3433 130.426 27.9793 130.043 27.578L130.995 26.01C131.079 25.8793 131.187 25.7767 131.317 25.702C131.448 25.6273 131.593 25.59 131.751 25.59C131.966 25.59 132.204 25.6927 132.465 25.898C132.727 26.094 133.039 26.3133 133.403 26.556C133.777 26.7893 134.225 27.0087 134.747 27.214C135.27 27.41 135.895 27.508 136.623 27.508C137.809 27.508 138.723 27.2187 139.367 26.64C140.021 26.0613 140.347 25.2633 140.347 24.246C140.347 23.6767 140.212 23.2147 139.941 22.86C139.671 22.496 139.311 22.1927 138.863 21.95C138.425 21.7073 137.921 21.502 137.351 21.334C136.782 21.166 136.203 20.9887 135.615 20.802C135.027 20.606 134.449 20.382 133.879 20.13C133.31 19.8687 132.801 19.5327 132.353 19.122C131.915 18.702 131.56 18.1887 131.289 17.582C131.019 16.966 130.883 16.2007 130.883 15.286C130.883 14.558 131.023 13.8533 131.303 13.172C131.593 12.4907 132.008 11.8887 132.549 11.366C133.1 10.834 133.777 10.4093 134.579 10.092C135.382 9.77467 136.297 9.616 137.323 9.616C138.481 9.616 139.54 9.798 140.501 10.162C141.472 10.526 142.307 11.044 143.007 11.716L142.209 13.284ZM158.159 15.72V30H156.339C155.938 30 155.681 29.8087 155.569 29.426L155.345 28.096C155.046 28.4133 154.729 28.7027 154.393 28.964C154.066 29.2253 153.716 29.4493 153.343 29.636C152.97 29.8227 152.568 29.9673 152.139 30.07C151.719 30.1727 151.266 30.224 150.781 30.224C149.997 30.224 149.306 30.0933 148.709 29.832C148.112 29.5707 147.608 29.202 147.197 28.726C146.796 28.25 146.492 27.6807 146.287 27.018C146.082 26.346 145.979 25.6087 145.979 24.806V15.72H148.989V24.806C148.989 25.7673 149.208 26.514 149.647 27.046C150.095 27.578 150.772 27.844 151.677 27.844C152.34 27.844 152.956 27.6947 153.525 27.396C154.104 27.088 154.645 26.668 155.149 26.136V15.72H158.159ZM170.928 19.234C170.508 18.6927 170.046 18.3147 169.542 18.1C169.038 17.8853 168.492 17.778 167.904 17.778C166.728 17.778 165.809 18.212 165.146 19.08C164.484 19.9387 164.152 21.2127 164.152 22.902C164.152 23.7793 164.227 24.5307 164.376 25.156C164.526 25.772 164.74 26.276 165.02 26.668C165.3 27.06 165.641 27.3447 166.042 27.522C166.444 27.6993 166.896 27.788 167.4 27.788C168.166 27.788 168.824 27.6247 169.374 27.298C169.934 26.962 170.452 26.4907 170.928 25.884V19.234ZM173.938 9.28V30H172.118C171.717 30 171.46 29.8087 171.348 29.426L171.082 27.872C170.485 28.572 169.804 29.1367 169.038 29.566C168.282 29.9953 167.4 30.21 166.392 30.21C165.59 30.21 164.862 30.0513 164.208 29.734C163.555 29.4073 162.995 28.936 162.528 28.32C162.062 27.704 161.698 26.9433 161.436 26.038C161.184 25.1233 161.058 24.078 161.058 22.902C161.058 21.838 161.198 20.8533 161.478 19.948C161.768 19.0427 162.178 18.2587 162.71 17.596C163.242 16.924 163.886 16.4013 164.642 16.028C165.408 15.6453 166.262 15.454 167.204 15.454C168.044 15.454 168.758 15.5893 169.346 15.86C169.934 16.1213 170.462 16.49 170.928 16.966V9.28H173.938ZM183.793 15.496C184.848 15.496 185.8 15.6687 186.649 16.014C187.508 16.3593 188.236 16.8493 188.833 17.484C189.44 18.1187 189.906 18.8887 190.233 19.794C190.56 20.6993 190.723 21.7167 190.723 22.846C190.723 23.9753 190.56 24.9927 190.233 25.898C189.906 26.8033 189.44 27.578 188.833 28.222C188.236 28.8567 187.508 29.3467 186.649 29.692C185.8 30.0373 184.848 30.21 183.793 30.21C182.729 30.21 181.768 30.0373 180.909 29.692C180.06 29.3467 179.332 28.8567 178.725 28.222C178.118 27.578 177.652 26.8033 177.325 25.898C176.998 24.9927 176.835 23.9753 176.835 22.846C176.835 21.7167 176.998 20.6993 177.325 19.794C177.652 18.8887 178.118 18.1187 178.725 17.484C179.332 16.8493 180.06 16.3593 180.909 16.014C181.768 15.6687 182.729 15.496 183.793 15.496ZM183.793 27.858C185.081 27.858 186.038 27.4287 186.663 26.57C187.298 25.702 187.615 24.4653 187.615 22.86C187.615 21.2547 187.298 20.018 186.663 19.15C186.038 18.2727 185.081 17.834 183.793 17.834C182.486 17.834 181.516 18.2727 180.881 19.15C180.246 20.018 179.929 21.2547 179.929 22.86C179.929 24.4653 180.246 25.702 180.881 26.57C181.516 27.4287 182.486 27.858 183.793 27.858ZM196.625 9.28V21.292H197.269C197.475 21.292 197.643 21.264 197.773 21.208C197.904 21.152 198.039 21.0353 198.179 20.858L202.183 16.28C202.323 16.0933 202.477 15.9533 202.645 15.86C202.813 15.7667 203.028 15.72 203.289 15.72H206.019L201.203 21.152C200.923 21.516 200.615 21.8053 200.279 22.02C200.466 22.1507 200.629 22.3 200.769 22.468C200.909 22.6267 201.045 22.8087 201.175 23.014L206.313 30H203.625C203.383 30 203.173 29.9627 202.995 29.888C202.827 29.804 202.678 29.6547 202.547 29.44L198.417 23.84C198.277 23.6253 198.137 23.49 197.997 23.434C197.857 23.3687 197.647 23.336 197.367 23.336H196.625V30H193.615V9.28H196.625ZM220.284 15.72V30H218.464C218.063 30 217.806 29.8087 217.694 29.426L217.47 28.096C217.171 28.4133 216.854 28.7027 216.518 28.964C216.191 29.2253 215.841 29.4493 215.468 29.636C215.095 29.8227 214.693 29.9673 214.264 30.07C213.844 30.1727 213.391 30.224 212.906 30.224C212.122 30.224 211.431 30.0933 210.834 29.832C210.237 29.5707 209.733 29.202 209.322 28.726C208.921 28.25 208.617 27.6807 208.412 27.018C208.207 26.346 208.104 25.6087 208.104 24.806V15.72H211.114V24.806C211.114 25.7673 211.333 26.514 211.772 27.046C212.22 27.578 212.897 27.844 213.802 27.844C214.465 27.844 215.081 27.6947 215.65 27.396C216.229 27.088 216.77 26.668 217.274 26.136V15.72H220.284Z" fill="white"/>
</svg>
