<svg width="20" height="20" viewBox="0 0 20 20" fill="none" xmlns="http://www.w3.org/2000/svg">
<path d="M12.0096 12C12.5396 12 13.0072 11.5625 13.0072 11V9C13.0072 8.46875 12.5396 8 12.0096 8C11.4484 8 11.012 8.46875 11.012 9V11C11.012 11.5625 11.4484 12 12.0096 12ZM10.0144 11V8C10.0144 7.46875 9.54676 7 9.01679 7C8.45564 7 8.01918 7.46875 8.01918 8V9.78125C8.82974 9.78125 9.60911 10.25 10.0144 11ZM15.0024 4C14.4412 4 14.0048 4.46875 14.0048 5V11C14.0048 12.125 13.1007 13 12.0096 13C11.3861 13 10.8561 12.75 10.5132 12.3125C10.3885 12.4375 10.2638 12.5312 10.1391 12.625C9.92086 13.4062 9.32854 14.0312 8.51799 14.2188L6.58513 14.6562L6.02398 13.75L8.26859 13.2188C8.86091 13.0938 9.26619 12.5938 9.26619 12.0312C9.26619 11.375 8.73621 10.75 8.01918 10.75C7.92566 10.75 7.83213 10.7812 7.73861 10.7812L3.9976 11.6562C3.06235 11.875 3 12.75 3 12.875C3 13.0312 3.06235 13.2188 3.1247 13.375L3.81055 14.9062C4.65228 16.8125 6.52278 18 8.58034 18H10.5132C13.5372 18 16 15.5625 16 12.5V5C16 4.46875 15.5324 4 15.0024 4ZM7.02158 3C7.02158 2.46875 6.55396 2 6.02398 2C5.46283 2 5.02638 2.46875 5.02638 3V10.375L7.02158 9.9375V3Z" fill="#C9C9D5"/>
</svg>
