<svg width="28" height="28" viewBox="0 0 28 28" fill="none" xmlns="http://www.w3.org/2000/svg">
<path d="M24.3872 6.19511L21.8068 3.6132C21.0327 2.7956 19.6995 2.7956 18.8824 3.6132L16.4741 6.02298L21.9358 11.5311L24.3872 9.12127C25.2043 8.30367 25.2043 6.96968 24.3872 6.19511ZM4.3465 18.1579C4.21748 18.244 4.17447 18.3731 4.13147 18.5022L3.01332 24.1394C2.92731 24.6127 3.27135 25 3.6584 25C3.70141 25 3.78742 25 3.83043 25L9.46418 23.8812C9.5932 23.8381 9.72221 23.7951 9.85123 23.666L20.9897 12.5208L15.485 7.01271L4.3465 18.1579ZM8.64707 21.9447L5.42164 22.5902L6.06672 19.3628L7.14187 18.287V20.8689H9.72221L8.64707 21.9447Z" fill="white"/>
</svg>
