<svg width="28" height="28" viewBox="0 0 28 28" fill="none" xmlns="http://www.w3.org/2000/svg">
<path d="M23.079 15.5125C22.4844 15.3292 21.8898 15.65 21.7069 16.2458C20.7464 19.6833 17.5447 22.0667 13.9771 22.0667C10.9127 22.0667 8.1684 20.325 6.79626 17.6667H11.4158C12.0104 17.6667 12.5135 17.2083 12.5135 16.5667C12.5135 15.9708 12.0561 15.4667 11.4158 15.4667H4.09771C3.50312 15.4667 3 15.9708 3 16.5667V23.9C3 24.5417 3.50312 25 4.09771 25C4.73805 25 5.19543 24.5417 5.19543 23.9V19.225C7.02495 22.2958 10.3638 24.2667 13.9771 24.2667C18.5052 24.2667 22.5301 21.2417 23.8108 16.8875C23.9938 16.2917 23.6736 15.6958 23.079 15.5125ZM23.9023 3C23.262 3 22.8046 3.50417 22.8046 4.1V8.82083C20.9751 5.75 17.6362 3.73333 14.0229 3.73333C9.4948 3.73333 5.42412 6.80417 4.14345 11.1583C4.00624 11.7083 4.3264 12.35 4.921 12.4875C5.51559 12.6708 6.11019 12.35 6.2474 11.7542C7.25364 8.3625 10.4553 5.93333 14.0229 5.93333C17.0416 5.93333 19.7859 7.72083 21.158 10.3333H16.5842C15.9439 10.3333 15.4865 10.8375 15.4865 11.4333C15.4865 12.075 15.9439 12.5333 16.5842 12.5333H23.9023C24.4969 12.5333 25 12.075 25 11.4333V4.1C25 3.50417 24.4969 3 23.9023 3Z" fill="white"/>
</svg>
