<svg width="20" height="20" viewBox="0 0 20 20" fill="none" xmlns="http://www.w3.org/2000/svg">
<path d="M10.0175 1C5.0156 1 1 5.04297 1 10C1 14.9922 5.0156 19 10.0175 19C14.9842 19 18.9998 14.9922 18.9998 10C19.035 5.04297 15.0194 1 10.0175 1ZM12.9764 12.7773C12.8002 12.9883 12.5537 13.0938 12.2719 13.0938C12.0957 13.0938 11.9196 13.0586 11.7435 12.9531L9.48913 11.2656C9.31301 11.0898 9.20733 10.8438 9.20733 10.5625V6.34375C9.20733 5.88672 9.55958 5.5 10.0527 5.5C10.5106 5.5 10.8981 5.88672 10.8981 6.34375V10.1406L12.8002 11.582C13.1877 11.8633 13.2582 12.3906 12.9764 12.7773Z" fill="#3C4FFF"/>
</svg>
