<svg width="28" height="28" viewBox="0 0 28 28" fill="none" xmlns="http://www.w3.org/2000/svg">
<path d="M25 14.3793C25 20.2586 20.2112 25 14.3793 25C12.056 25 9.82759 24.2888 7.97845 22.9138C7.31466 22.3922 7.17241 21.444 7.69397 20.7802C8.21552 20.1164 9.16379 19.9741 9.82759 20.4483C11.1552 21.444 12.7198 21.9655 14.3793 21.9655C18.5517 21.9655 21.9655 18.5991 21.9655 14.3793C21.9655 10.2069 18.5517 6.84052 14.3793 6.84052C11.9612 6.84052 9.73276 7.97845 8.31035 9.82759H11.3448C12.1509 9.82759 12.8621 10.5388 12.8621 11.3448C12.8621 12.1983 12.1509 12.8621 11.3448 12.8621H4.51724C3.66379 12.8621 3 12.1983 3 11.3448V4.51724C3 3.71121 3.66379 3 4.51724 3C5.32328 3 6.03448 3.71121 6.03448 4.51724V7.88362C8.02586 5.32328 11.0603 3.80603 14.3793 3.80603C20.2112 3.80603 25 8.54741 25 14.3793Z" fill="white"/>
</svg>
